<svg xmlns="http://www.w3.org/2000/svg" viewBox="0 0 512 512">
  <defs>
    <clipPath id="icon-mask">
      <rect width="512" height="512" rx="96" ry="96" />
    </clipPath>
    <linearGradient id="queen-split" x1="0%" y1="0%" x2="100%" y2="0%">
      <stop offset="0%" stop-color="#9b9b9b" />
      <stop offset="50%" stop-color="#c7c7c7" />
      <stop offset="50%" stop-color="#161616" />
      <stop offset="100%" stop-color="#000000" />
    </linearGradient>
  </defs>

  <g clip-path="url(#icon-mask)">
    <rect width="512" height="512" fill="#c9c9c9" />

    <g fill="#050505">
      <rect x="-30" y="28" width="320" height="34" transform="rotate(-12 -30 28)" />
      <rect x="178" y="-12" width="364" height="50" transform="rotate(-12 178 -12)" />
      <rect x="-48" y="122" width="260" height="26" transform="rotate(-12 -48 122)" />
      <rect x="228" y="98" width="316" height="44" transform="rotate(-12 228 98)" />
      <rect x="-18" y="228" width="256" height="44" transform="rotate(-12 -18 228)" />
      <rect x="208" y="196" width="346" height="52" transform="rotate(-12 208 196)" />
      <rect x="-52" y="346" width="274" height="44" transform="rotate(-12 -52 346)" />
      <rect x="246" y="320" width="314" height="48" transform="rotate(-12 246 320)" />
      <rect x="-14" y="436" width="288" height="30" transform="rotate(-12 -14 436)" />
      <rect x="214" y="430" width="344" height="38" transform="rotate(-12 214 430)" />

      <rect x="-20" y="88" width="126" height="8" transform="rotate(-12 -20 88)" />
      <rect x="-8" y="100" width="126" height="8" transform="rotate(-12 -8 100)" />
      <rect x="4" y="112" width="126" height="8" transform="rotate(-12 4 112)" />
      <rect x="8" y="286" width="176" height="9" transform="rotate(-12 8 286)" />
      <rect x="20" y="298" width="176" height="9" transform="rotate(-12 20 298)" />
      <rect x="32" y="310" width="176" height="9" transform="rotate(-12 32 310)" />
      <rect x="22" y="468" width="232" height="10" transform="rotate(-12 22 468)" />
      <rect x="34" y="480" width="232" height="10" transform="rotate(-12 34 480)" />
      <rect x="352" y="420" width="88" height="10" transform="rotate(-12 352 420)" />
      <rect x="366" y="434" width="88" height="10" transform="rotate(-12 366 434)" />
    </g>

    <g transform="translate(102 42)">
      <path
        fill="url(#queen-split)"
        stroke="#111"
        stroke-width="6"
        d="M154 8l18 28h25l-21 24 9 25-24-13-24 13 9-25-21-24h25l18-28Zm-59 72 26 20 33-28 33 28 26-20 14 33-20 63h-99l-20-63 7-16Zm34 105h50l20 7-8 23h26v36h-43v117l25 76h-90l25-76V251H90v-36h26l-8-23 21-7Zm-30 161h110l-8 26h-94l-8-26Zm-12 35h134v31H87v-31Z"
      />
      <path
        fill="none"
        stroke="#d8d8d8"
        stroke-width="10"
        d="M220 88 90 394"
      />
    </g>
  </g>
</svg>
