<svg xmlns="http://www.w3.org/2000/svg" viewBox="0 0 512 512">
  <defs>
    <linearGradient id="bg" x1="0%" x2="100%" y1="0%" y2="100%">
      <stop offset="0%" stop-color="#f7f6e5" />
      <stop offset="100%" stop-color="#efeccf" />
    </linearGradient>
  </defs>
  <rect width="512" height="512" rx="120" fill="url(#bg)" />
  <circle cx="256" cy="256" r="180" fill="#fffdf0" stroke="#36064d" stroke-width="18" />
  <path
    d="M256 124c18 0 31 15 31 34 0 12-5 22-14 28l15 50h30c9 0 16 7 16 16 0 8-6 15-14 16l-17 102h24c12 0 22 10 22 22v8H163v-8c0-12 10-22 22-22h24l-17-102c-8-1-14-8-14-16 0-9 7-16 16-16h30l15-50c-9-6-14-16-14-28 0-19 13-34 31-34Z"
    fill="#36064d"
  />
  <path
    d="M184 390h144"
    fill="none"
    stroke="#76d2db"
    stroke-linecap="round"
    stroke-width="20"
  />
  <path
    d="M168 220c24-18 55-28 88-28 35 0 67 11 92 31"
    fill="none"
    stroke="#da4848"
    stroke-linecap="round"
    stroke-width="18"
  />
</svg>
